<mxfile host="app.diagrams.net" modified="2023-09-30T05:21:03.949Z" agent="Mozilla/5.0 (Windows NT 10.0; Win64; x64) AppleWebKit/537.36 (KHTML, like Gecko) Chrome/117.0.0.0 Safari/537.36" etag="8PNH75jrJZb4Xi2tHU9e" version="22.0.0" type="device">
  <diagram name="Página-1" id="LavA5wfHHiMm7ToJ8xh2">
    <mxGraphModel dx="2800" dy="1175" grid="1" gridSize="10" guides="1" tooltips="1" connect="1" arrows="1" fold="1" page="1" pageScale="1" pageWidth="1920" pageHeight="1200" math="0" shadow="0">
      <root>
        <mxCell id="0" />
        <mxCell id="1" parent="0" />
        <mxCell id="fGEQ1BemYQ1df5fQ60ZC-79" value="" style="rounded=1;whiteSpace=wrap;html=1;hachureGap=4;fontFamily=Helvetica;fontSize=20;" parent="1" vertex="1">
          <mxGeometry x="37.5" y="110" width="760" height="1440" as="geometry" />
        </mxCell>
        <mxCell id="fGEQ1BemYQ1df5fQ60ZC-48" value="" style="rounded=1;whiteSpace=wrap;html=1;strokeColor=#000000;fillColor=#000000;" parent="1" vertex="1">
          <mxGeometry x="1090" y="50" width="360" height="1820" as="geometry" />
        </mxCell>
        <mxCell id="fGEQ1BemYQ1df5fQ60ZC-35" value="&lt;b&gt;&lt;font style=&quot;font-size: 36px;&quot;&gt;FORMAÇÃO&lt;/font&gt;&lt;/b&gt;" style="text;html=1;align=center;verticalAlign=middle;whiteSpace=wrap;rounded=0;" parent="1" vertex="1">
          <mxGeometry x="280" y="970" width="305" height="30" as="geometry" />
        </mxCell>
        <mxCell id="fGEQ1BemYQ1df5fQ60ZC-45" value="" style="rounded=1;whiteSpace=wrap;html=1;" parent="1" vertex="1">
          <mxGeometry x="1100" y="62.5" width="340" height="1797.5" as="geometry" />
        </mxCell>
        <mxCell id="fGEQ1BemYQ1df5fQ60ZC-46" value="FOTO" style="ellipse;whiteSpace=wrap;html=1;aspect=fixed;" parent="1" vertex="1">
          <mxGeometry x="1230" y="115" width="80" height="80" as="geometry" />
        </mxCell>
        <mxCell id="fGEQ1BemYQ1df5fQ60ZC-47" value="NOME, IDADE" style="text;html=1;strokeColor=none;fillColor=none;align=center;verticalAlign=middle;whiteSpace=wrap;rounded=0;" parent="1" vertex="1">
          <mxGeometry x="1220" y="210" width="100" height="30" as="geometry" />
        </mxCell>
        <mxCell id="fGEQ1BemYQ1df5fQ60ZC-50" value="" style="ellipse;whiteSpace=wrap;html=1;aspect=fixed;fillColor=#000000;" parent="1" vertex="1">
          <mxGeometry x="1265" y="80" width="10" height="10" as="geometry" />
        </mxCell>
        <mxCell id="fGEQ1BemYQ1df5fQ60ZC-51" value="" style="ellipse;whiteSpace=wrap;html=1;aspect=fixed;" parent="1" vertex="1">
          <mxGeometry x="1267.5" y="82.5" width="5" height="5" as="geometry" />
        </mxCell>
        <mxCell id="fGEQ1BemYQ1df5fQ60ZC-52" value="&lt;font style=&quot;font-size: 18px;&quot;&gt;SOBRE MIM&lt;/font&gt;" style="text;html=1;strokeColor=none;fillColor=none;align=center;verticalAlign=middle;whiteSpace=wrap;rounded=0;" parent="1" vertex="1">
          <mxGeometry x="1212.5" y="270" width="115" height="30" as="geometry" />
        </mxCell>
        <mxCell id="fGEQ1BemYQ1df5fQ60ZC-73" value="&lt;b&gt;&lt;font style=&quot;font-size: 36px;&quot;&gt;EXPERIÊNCIAS&lt;/font&gt;&lt;/b&gt;" style="text;html=1;align=center;verticalAlign=middle;whiteSpace=wrap;rounded=0;" parent="1" vertex="1">
          <mxGeometry x="270" y="656" width="305" height="30" as="geometry" />
        </mxCell>
        <mxCell id="fGEQ1BemYQ1df5fQ60ZC-77" value="AREA DE TXTO" style="rounded=1;whiteSpace=wrap;html=1;" parent="1" vertex="1">
          <mxGeometry x="97.5" y="720" width="650" height="210" as="geometry" />
        </mxCell>
        <mxCell id="fGEQ1BemYQ1df5fQ60ZC-78" value="AREA DE TEXTO" style="rounded=1;whiteSpace=wrap;html=1;" parent="1" vertex="1">
          <mxGeometry x="97.5" y="1020" width="645" height="220" as="geometry" />
        </mxCell>
        <mxCell id="fGEQ1BemYQ1df5fQ60ZC-80" value="FOTO" style="ellipse;whiteSpace=wrap;html=1;aspect=fixed;hachureGap=4;fontFamily=Architects Daughter;fontSource=https%3A%2F%2Ffonts.googleapis.com%2Fcss%3Ffamily%3DArchitects%2BDaughter;fontSize=20;" parent="1" vertex="1">
          <mxGeometry x="377.75" y="127.5" width="90" height="90" as="geometry" />
        </mxCell>
        <mxCell id="fGEQ1BemYQ1df5fQ60ZC-81" value="NOME" style="text;html=1;strokeColor=#666666;fillColor=#f5f5f5;align=center;verticalAlign=middle;whiteSpace=wrap;rounded=0;fontSize=20;fontFamily=Helvetica;fontColor=#333333;" parent="1" vertex="1">
          <mxGeometry x="177.5" y="235" width="490" height="30" as="geometry" />
        </mxCell>
        <mxCell id="fGEQ1BemYQ1df5fQ60ZC-82" value="SOBRE MIM" style="rounded=1;whiteSpace=wrap;html=1;" parent="1" vertex="1">
          <mxGeometry x="155" y="286" width="120" height="30" as="geometry" />
        </mxCell>
        <mxCell id="fGEQ1BemYQ1df5fQ60ZC-83" value="&lt;font style=&quot;vertical-align: inherit;&quot;&gt;&lt;font style=&quot;vertical-align: inherit;&quot;&gt;EXPERIÊNCIAS&lt;/font&gt;&lt;/font&gt;" style="rounded=1;whiteSpace=wrap;html=1;" parent="1" vertex="1">
          <mxGeometry x="295" y="286" width="120" height="30" as="geometry" />
        </mxCell>
        <mxCell id="fGEQ1BemYQ1df5fQ60ZC-84" value="&lt;font style=&quot;vertical-align: inherit;&quot;&gt;&lt;font style=&quot;vertical-align: inherit;&quot;&gt;FORMAÇÃO&lt;/font&gt;&lt;/font&gt;" style="rounded=1;whiteSpace=wrap;html=1;" parent="1" vertex="1">
          <mxGeometry x="435" y="286" width="120" height="30" as="geometry" />
        </mxCell>
        <mxCell id="fGEQ1BemYQ1df5fQ60ZC-85" value="&lt;b&gt;&lt;font style=&quot;font-size: 36px;&quot;&gt;SOBRE MIM&lt;/font&gt;&lt;/b&gt;" style="text;html=1;align=center;verticalAlign=middle;whiteSpace=wrap;rounded=0;" parent="1" vertex="1">
          <mxGeometry x="265" y="350" width="305" height="30" as="geometry" />
        </mxCell>
        <mxCell id="fGEQ1BemYQ1df5fQ60ZC-88" value="" style="rounded=1;whiteSpace=wrap;html=1;" parent="1" vertex="1">
          <mxGeometry x="92.5" y="400" width="645" height="220" as="geometry" />
        </mxCell>
        <mxCell id="fGEQ1BemYQ1df5fQ60ZC-89" value="" style="rounded=1;whiteSpace=wrap;html=1;" parent="1" vertex="1">
          <mxGeometry x="1130" y="330" width="280" height="380" as="geometry" />
        </mxCell>
        <mxCell id="fGEQ1BemYQ1df5fQ60ZC-90" value="" style="line;strokeWidth=2;html=1;perimeter=backbonePerimeter;points=[];outlineConnect=0;" parent="1" vertex="1">
          <mxGeometry x="1392" y="108" width="20" height="10" as="geometry" />
        </mxCell>
        <mxCell id="fGEQ1BemYQ1df5fQ60ZC-91" value="" style="line;strokeWidth=2;html=1;perimeter=backbonePerimeter;points=[];outlineConnect=0;" parent="1" vertex="1">
          <mxGeometry x="1392" y="115" width="20" height="10" as="geometry" />
        </mxCell>
        <mxCell id="fGEQ1BemYQ1df5fQ60ZC-92" value="" style="line;strokeWidth=2;html=1;perimeter=backbonePerimeter;points=[];outlineConnect=0;" parent="1" vertex="1">
          <mxGeometry x="1392" y="122" width="20" height="10" as="geometry" />
        </mxCell>
        <mxCell id="nooxoIKd4WOaRMmOMWxM-23" value="" style="rounded=1;whiteSpace=wrap;html=1;strokeColor=#000000;fillColor=#000000;" parent="1" vertex="1">
          <mxGeometry x="1530" y="47.5" width="360" height="695" as="geometry" />
        </mxCell>
        <mxCell id="nooxoIKd4WOaRMmOMWxM-24" value="" style="rounded=1;whiteSpace=wrap;html=1;" parent="1" vertex="1">
          <mxGeometry x="1540" y="62.5" width="340" height="660" as="geometry" />
        </mxCell>
        <mxCell id="nooxoIKd4WOaRMmOMWxM-27" value="" style="ellipse;whiteSpace=wrap;html=1;aspect=fixed;fillColor=#000000;" parent="1" vertex="1">
          <mxGeometry x="1705" y="77.5" width="10" height="10" as="geometry" />
        </mxCell>
        <mxCell id="nooxoIKd4WOaRMmOMWxM-28" value="" style="ellipse;whiteSpace=wrap;html=1;aspect=fixed;" parent="1" vertex="1">
          <mxGeometry x="1707.5" y="80" width="5" height="5" as="geometry" />
        </mxCell>
        <mxCell id="nooxoIKd4WOaRMmOMWxM-38" value="" style="rounded=1;whiteSpace=wrap;html=1;fillColor=#f5f5f5;fontColor=#333333;strokeColor=#666666;" parent="1" vertex="1">
          <mxGeometry x="1590" y="62.5" width="290" height="660" as="geometry" />
        </mxCell>
        <mxCell id="nooxoIKd4WOaRMmOMWxM-39" value="" style="ellipse;whiteSpace=wrap;html=1;aspect=fixed;fillColor=#000000;" parent="1" vertex="1">
          <mxGeometry x="1715" y="77.5" width="10" height="10" as="geometry" />
        </mxCell>
        <mxCell id="nooxoIKd4WOaRMmOMWxM-40" value="" style="ellipse;whiteSpace=wrap;html=1;aspect=fixed;" parent="1" vertex="1">
          <mxGeometry x="1717.5" y="80" width="5" height="5" as="geometry" />
        </mxCell>
        <mxCell id="nooxoIKd4WOaRMmOMWxM-41" value="" style="line;strokeWidth=2;html=1;perimeter=backbonePerimeter;points=[];outlineConnect=0;" parent="1" vertex="1">
          <mxGeometry x="1603" y="107" width="20" height="10" as="geometry" />
        </mxCell>
        <mxCell id="nooxoIKd4WOaRMmOMWxM-42" value="" style="line;strokeWidth=2;html=1;perimeter=backbonePerimeter;points=[];outlineConnect=0;" parent="1" vertex="1">
          <mxGeometry x="1603" y="114" width="20" height="10" as="geometry" />
        </mxCell>
        <mxCell id="nooxoIKd4WOaRMmOMWxM-43" value="" style="line;strokeWidth=2;html=1;perimeter=backbonePerimeter;points=[];outlineConnect=0;" parent="1" vertex="1">
          <mxGeometry x="1603" y="121" width="20" height="10" as="geometry" />
        </mxCell>
        <mxCell id="nooxoIKd4WOaRMmOMWxM-45" value="SOBRE MIM" style="rounded=1;whiteSpace=wrap;html=1;" parent="1" vertex="1">
          <mxGeometry x="1678" y="160" width="120" height="25" as="geometry" />
        </mxCell>
        <mxCell id="nooxoIKd4WOaRMmOMWxM-46" value="EXPERIENCIAS" style="rounded=1;whiteSpace=wrap;html=1;" parent="1" vertex="1">
          <mxGeometry x="1678" y="210" width="120" height="25" as="geometry" />
        </mxCell>
        <mxCell id="nooxoIKd4WOaRMmOMWxM-47" value="FORMAÇÃO" style="rounded=1;whiteSpace=wrap;html=1;" parent="1" vertex="1">
          <mxGeometry x="1678" y="261" width="120" height="25" as="geometry" />
        </mxCell>
        <mxCell id="Y5cfU9OoWr337SU91PaD-1" value="CONTATOS" style="rounded=1;whiteSpace=wrap;html=1;" parent="1" vertex="1">
          <mxGeometry x="1678" y="305" width="120" height="25" as="geometry" />
        </mxCell>
        <mxCell id="Y5cfU9OoWr337SU91PaD-2" value="CONTATOS" style="rounded=1;whiteSpace=wrap;html=1;" parent="1" vertex="1">
          <mxGeometry x="575" y="286" width="120" height="30" as="geometry" />
        </mxCell>
        <mxCell id="Y5cfU9OoWr337SU91PaD-3" value="IMAGEM" style="rounded=1;whiteSpace=wrap;html=1;" parent="1" vertex="1">
          <mxGeometry x="110" y="420" width="190" height="180" as="geometry" />
        </mxCell>
        <mxCell id="Y5cfU9OoWr337SU91PaD-4" value="TEXTO" style="rounded=1;whiteSpace=wrap;html=1;" parent="1" vertex="1">
          <mxGeometry x="355" y="420" width="355" height="180" as="geometry" />
        </mxCell>
        <mxCell id="Y5cfU9OoWr337SU91PaD-9" value="IMAGEM" style="rounded=1;whiteSpace=wrap;html=1;" parent="1" vertex="1">
          <mxGeometry x="110" y="735" width="190" height="180" as="geometry" />
        </mxCell>
        <mxCell id="Y5cfU9OoWr337SU91PaD-10" value="IMAGEM" style="rounded=1;whiteSpace=wrap;html=1;" parent="1" vertex="1">
          <mxGeometry x="110" y="1040" width="190" height="180" as="geometry" />
        </mxCell>
        <mxCell id="Y5cfU9OoWr337SU91PaD-11" value="TEXTO" style="rounded=1;whiteSpace=wrap;html=1;" parent="1" vertex="1">
          <mxGeometry x="355" y="740" width="355" height="180" as="geometry" />
        </mxCell>
        <mxCell id="Y5cfU9OoWr337SU91PaD-12" value="TEXTO" style="rounded=1;whiteSpace=wrap;html=1;" parent="1" vertex="1">
          <mxGeometry x="355" y="1040" width="355" height="180" as="geometry" />
        </mxCell>
        <mxCell id="Y5cfU9OoWr337SU91PaD-14" value="IMAGEM" style="rounded=1;whiteSpace=wrap;html=1;" parent="1" vertex="1">
          <mxGeometry x="1155" y="360" width="235" height="100" as="geometry" />
        </mxCell>
        <mxCell id="Y5cfU9OoWr337SU91PaD-15" value="TEXTO" style="rounded=1;whiteSpace=wrap;html=1;" parent="1" vertex="1">
          <mxGeometry x="1155" y="486" width="240" height="200" as="geometry" />
        </mxCell>
        <mxCell id="Y5cfU9OoWr337SU91PaD-16" value="&lt;font style=&quot;font-size: 18px;&quot;&gt;EXPERIÊNCIAS&lt;/font&gt;" style="text;html=1;strokeColor=none;fillColor=none;align=center;verticalAlign=middle;whiteSpace=wrap;rounded=0;" parent="1" vertex="1">
          <mxGeometry x="1212.5" y="735" width="115" height="30" as="geometry" />
        </mxCell>
        <mxCell id="Y5cfU9OoWr337SU91PaD-17" value="" style="rounded=1;whiteSpace=wrap;html=1;" parent="1" vertex="1">
          <mxGeometry x="1130" y="795" width="280" height="380" as="geometry" />
        </mxCell>
        <mxCell id="Y5cfU9OoWr337SU91PaD-18" value="IMAGEM" style="rounded=1;whiteSpace=wrap;html=1;" parent="1" vertex="1">
          <mxGeometry x="1155" y="825" width="235" height="100" as="geometry" />
        </mxCell>
        <mxCell id="Y5cfU9OoWr337SU91PaD-19" value="TEXTO" style="rounded=1;whiteSpace=wrap;html=1;" parent="1" vertex="1">
          <mxGeometry x="1155" y="951" width="240" height="200" as="geometry" />
        </mxCell>
        <mxCell id="Y5cfU9OoWr337SU91PaD-24" value="&lt;font style=&quot;font-size: 18px;&quot;&gt;FORMAÇÃO&lt;/font&gt;" style="text;html=1;strokeColor=none;fillColor=none;align=center;verticalAlign=middle;whiteSpace=wrap;rounded=0;" parent="1" vertex="1">
          <mxGeometry x="1212.5" y="1200" width="115" height="30" as="geometry" />
        </mxCell>
        <mxCell id="Y5cfU9OoWr337SU91PaD-25" value="" style="rounded=1;whiteSpace=wrap;html=1;" parent="1" vertex="1">
          <mxGeometry x="1130" y="1260" width="280" height="380" as="geometry" />
        </mxCell>
        <mxCell id="Y5cfU9OoWr337SU91PaD-26" value="IMAGEM" style="rounded=1;whiteSpace=wrap;html=1;" parent="1" vertex="1">
          <mxGeometry x="1155" y="1290" width="235" height="100" as="geometry" />
        </mxCell>
        <mxCell id="Y5cfU9OoWr337SU91PaD-27" value="TEXTO" style="rounded=1;whiteSpace=wrap;html=1;" parent="1" vertex="1">
          <mxGeometry x="1155" y="1416" width="240" height="200" as="geometry" />
        </mxCell>
        <mxCell id="Y5cfU9OoWr337SU91PaD-36" value="" style="line;strokeWidth=2;html=1;" parent="1" vertex="1">
          <mxGeometry x="1100" y="1720" width="340" height="10" as="geometry" />
        </mxCell>
        <mxCell id="Y5cfU9OoWr337SU91PaD-37" value="CONTATOS" style="text;html=1;strokeColor=none;fillColor=none;align=center;verticalAlign=middle;whiteSpace=wrap;rounded=0;" parent="1" vertex="1">
          <mxGeometry x="1240" y="1740" width="60" height="30" as="geometry" />
        </mxCell>
        <mxCell id="tqwyW3pv-g3gXoRzXJvw-1" value="" style="line;strokeWidth=2;html=1;" vertex="1" parent="1">
          <mxGeometry x="37.5" y="1360" width="762.5" height="10" as="geometry" />
        </mxCell>
        <mxCell id="tqwyW3pv-g3gXoRzXJvw-3" value="&lt;font style=&quot;vertical-align: inherit;&quot;&gt;&lt;font style=&quot;vertical-align: inherit;&quot;&gt;CONTATOS&lt;/font&gt;&lt;/font&gt;" style="text;strokeColor=none;fillColor=none;html=1;fontSize=24;fontStyle=1;verticalAlign=middle;align=center;" vertex="1" parent="1">
          <mxGeometry x="372.75" y="1376" width="100" height="40" as="geometry" />
        </mxCell>
      </root>
    </mxGraphModel>
  </diagram>
</mxfile>
